<svg width="358" height="233" viewBox="0 0 358 233" fill="none" xmlns="http://www.w3.org/2000/svg">
<path d="M6.47331 214.126C5.99908 214.126 5.59598 213.96 5.26401 213.629C4.93205 213.297 4.76607 212.893 4.76607 212.419V165.328C4.76607 164.806 4.93205 164.403 5.26401 164.118C5.59598 163.786 5.99908 163.62 6.47331 163.62H12.3775C12.8518 163.62 13.2549 163.786 13.5868 164.118C13.9188 164.45 14.0848 164.853 14.0848 165.328V189.656L25.8933 178.345C26.0355 178.251 26.2489 178.085 26.5335 177.847C26.8654 177.563 27.1737 177.373 27.4582 177.278C27.7428 177.184 28.0984 177.136 28.5253 177.136H35.2831C35.7574 177.136 36.1367 177.278 36.4213 177.563C36.7058 177.847 36.8481 178.227 36.8481 178.701C36.8481 179.128 36.611 179.555 36.1367 179.982L21.6251 193.711L37.9151 211.352C38.3419 211.779 38.5553 212.182 38.5553 212.561C38.5553 213.036 38.4131 213.415 38.1285 213.7C37.844 213.984 37.4883 214.126 37.0615 214.126H30.1614C29.4974 214.126 28.9995 214.055 28.6675 213.913C28.383 213.723 28.0036 213.391 27.5294 212.917L14.0848 198.619V212.419C14.0848 212.893 13.9188 213.297 13.5868 213.629C13.2549 213.96 12.8518 214.126 12.3775 214.126H6.47331ZM42.8062 214.126C42.332 214.126 41.9289 213.96 41.5969 213.629C41.265 213.297 41.099 212.893 41.099 212.419V178.843C41.099 178.322 41.265 177.919 41.5969 177.634C41.9289 177.302 42.332 177.136 42.8062 177.136H48.7105C49.2321 177.136 49.6352 177.302 49.9198 177.634C50.2517 177.919 50.4177 178.322 50.4177 178.843V181.76C53.3105 178.203 57.2704 176.425 62.2973 176.425C66.6603 176.425 70.1222 177.847 72.6831 180.693C75.2439 183.538 76.5244 187.451 76.5244 192.43V212.419C76.5244 212.893 76.3584 213.297 76.0264 213.629C75.7419 213.96 75.3388 214.126 74.8171 214.126H68.4149C67.9407 214.126 67.5376 213.96 67.2056 213.629C66.8737 213.297 66.7077 212.893 66.7077 212.419V192.857C66.7077 190.106 66.0201 187.972 64.6448 186.455C63.3169 184.89 61.3963 184.107 58.8828 184.107C56.4642 184.107 54.5198 184.89 53.0497 186.455C51.5796 188.02 50.8445 190.154 50.8445 192.857V212.419C50.8445 212.893 50.6785 213.297 50.3466 213.629C50.062 213.96 49.6589 214.126 49.1373 214.126H42.8062ZM96.4422 214.838C92.0793 214.838 88.6411 213.415 86.1276 210.57C83.6142 207.724 82.3575 203.812 82.3575 198.832V178.843C82.3575 178.322 82.5234 177.919 82.8554 177.634C83.1874 177.302 83.5905 177.136 84.0647 177.136H90.4669C90.9411 177.136 91.3442 177.302 91.6762 177.634C92.0081 177.966 92.1741 178.369 92.1741 178.843V198.406C92.1741 204.239 94.7113 207.155 99.7856 207.155C102.252 207.155 104.196 206.373 105.619 204.808C107.089 203.243 107.824 201.109 107.824 198.406V178.843C107.824 178.322 107.99 177.919 108.322 177.634C108.654 177.302 109.057 177.136 109.531 177.136H115.862C116.384 177.136 116.787 177.302 117.071 177.634C117.403 177.919 117.569 178.322 117.569 178.843V212.419C117.569 212.893 117.403 213.297 117.071 213.629C116.787 213.96 116.384 214.126 115.862 214.126H109.958C109.484 214.126 109.081 213.96 108.749 213.629C108.417 213.297 108.251 212.893 108.251 212.419V209.503C105.642 213.059 101.706 214.838 96.4422 214.838ZM125.826 214.126C125.352 214.126 124.949 213.96 124.617 213.629C124.285 213.297 124.119 212.893 124.119 212.419V178.914C124.119 178.393 124.285 177.966 124.617 177.634C124.949 177.302 125.352 177.136 125.826 177.136H131.659C132.181 177.136 132.608 177.302 132.94 177.634C133.272 177.966 133.438 178.393 133.438 178.914V181.831C135.809 178.701 139.223 177.136 143.681 177.136H146.669C147.19 177.136 147.594 177.302 147.878 177.634C148.21 177.919 148.376 178.322 148.376 178.843V184.036C148.376 184.51 148.21 184.914 147.878 185.246C147.594 185.577 147.19 185.743 146.669 185.743H141.049C138.82 185.743 137.066 186.384 135.785 187.664C134.505 188.945 133.864 190.699 133.864 192.928V212.419C133.864 212.893 133.698 213.297 133.366 213.629C133.035 213.96 132.631 214.126 132.157 214.126H125.826ZM152.854 214.126C152.379 214.126 151.976 213.96 151.644 213.629C151.312 213.297 151.146 212.893 151.146 212.419V165.328C151.146 164.806 151.312 164.403 151.644 164.118C151.976 163.786 152.379 163.62 152.854 163.62H158.829C159.351 163.62 159.754 163.786 160.038 164.118C160.37 164.403 160.536 164.806 160.536 165.328V212.419C160.536 212.893 160.37 213.297 160.038 213.629C159.754 213.96 159.351 214.126 158.829 214.126H152.854ZM168.548 171.09C168.074 171.09 167.671 170.924 167.339 170.592C167.007 170.26 166.841 169.857 166.841 169.382V164.189C166.841 163.668 167.007 163.241 167.339 162.909C167.671 162.577 168.074 162.411 168.548 162.411H175.092C175.614 162.411 176.041 162.577 176.373 162.909C176.705 163.241 176.871 163.668 176.871 164.189V169.382C176.871 169.857 176.681 170.26 176.302 170.592C175.97 170.924 175.567 171.09 175.092 171.09H168.548ZM168.832 214.126C168.358 214.126 167.955 213.96 167.623 213.629C167.291 213.297 167.125 212.893 167.125 212.419V178.843C167.125 178.322 167.291 177.919 167.623 177.634C167.955 177.302 168.358 177.136 168.832 177.136H174.879C175.353 177.136 175.756 177.302 176.088 177.634C176.42 177.966 176.586 178.369 176.586 178.843V212.419C176.586 212.893 176.42 213.297 176.088 213.629C175.756 213.96 175.353 214.126 174.879 214.126H168.832ZM184.813 214.126C184.339 214.126 183.936 213.96 183.604 213.629C183.272 213.297 183.106 212.893 183.106 212.419V178.843C183.106 178.322 183.272 177.919 183.604 177.634C183.936 177.302 184.339 177.136 184.813 177.136H190.717C191.239 177.136 191.642 177.302 191.926 177.634C192.258 177.919 192.424 178.322 192.424 178.843V181.76C195.317 178.203 199.277 176.425 204.304 176.425C208.667 176.425 212.129 177.847 214.69 180.693C217.251 183.538 218.531 187.451 218.531 192.43V212.419C218.531 212.893 218.365 213.297 218.033 213.629C217.749 213.96 217.345 214.126 216.824 214.126H210.422C209.947 214.126 209.544 213.96 209.212 213.629C208.88 213.297 208.714 212.893 208.714 212.419V192.857C208.714 190.106 208.027 187.972 206.651 186.455C205.324 184.89 203.403 184.107 200.889 184.107C198.471 184.107 196.526 184.89 195.056 186.455C193.586 188.02 192.851 190.154 192.851 192.857V212.419C192.851 212.893 192.685 213.297 192.353 213.629C192.069 213.96 191.666 214.126 191.144 214.126H184.813ZM241.437 229.776C237.216 229.776 233.801 229.065 231.193 227.642C228.585 226.267 226.735 224.678 225.645 222.876C224.554 221.074 224.008 219.533 224.008 218.252C224.008 217.778 224.174 217.375 224.506 217.043C224.838 216.758 225.241 216.616 225.716 216.616H232.047C232.474 216.616 232.829 216.711 233.114 216.901C233.446 217.138 233.707 217.541 233.896 218.11C234.418 219.343 235.2 220.386 236.244 221.24C237.287 222.141 238.899 222.592 241.081 222.592C243.926 222.592 246.013 221.951 247.341 220.671C248.669 219.438 249.333 217.256 249.333 214.126V209.289C246.772 212.324 243.144 213.842 238.449 213.842C233.517 213.842 229.794 212.348 227.281 209.36C224.815 206.373 223.487 202.294 223.297 197.125L223.226 195.204L223.297 193.284C223.487 188.21 224.838 184.131 227.352 181.049C229.865 177.966 233.564 176.425 238.449 176.425C240.962 176.425 243.168 176.899 245.064 177.847C246.961 178.796 248.526 180.076 249.759 181.689V178.914C249.759 178.393 249.925 177.966 250.257 177.634C250.637 177.302 251.064 177.136 251.538 177.136H257.371C257.845 177.136 258.248 177.302 258.58 177.634C258.912 177.966 259.078 178.393 259.078 178.914L259.149 213.202C259.149 218.466 257.679 222.544 254.739 225.437C251.799 228.33 247.365 229.776 241.437 229.776ZM241.152 206.302C243.808 206.302 245.8 205.448 247.127 203.741C248.455 202.033 249.19 199.947 249.333 197.481C249.38 197.101 249.404 196.343 249.404 195.204C249.404 194.066 249.38 193.308 249.333 192.928C249.19 190.462 248.455 188.375 247.127 186.668C245.8 184.961 243.808 184.107 241.152 184.107C236.03 184.107 233.327 187.237 233.043 193.497L232.971 195.204C232.971 202.603 235.698 206.302 241.152 206.302ZM267.131 196.912C266.657 196.912 266.254 196.746 265.922 196.414C265.59 196.082 265.424 195.679 265.424 195.204V190.367C265.424 189.893 265.59 189.49 265.922 189.158C266.254 188.826 266.657 188.66 267.131 188.66H289.041C289.563 188.66 289.966 188.826 290.25 189.158C290.582 189.443 290.748 189.846 290.748 190.367V195.204C290.748 195.679 290.582 196.082 290.25 196.414C289.918 196.746 289.515 196.912 289.041 196.912H267.131ZM298.749 214.126C298.275 214.126 297.871 213.96 297.54 213.629C297.208 213.297 297.042 212.893 297.042 212.419V178.914C297.042 178.393 297.208 177.966 297.54 177.634C297.871 177.302 298.275 177.136 298.749 177.136H304.582C305.104 177.136 305.53 177.302 305.862 177.634C306.194 177.966 306.36 178.393 306.36 178.914V181.831C308.731 178.701 312.146 177.136 316.604 177.136H319.591C320.113 177.136 320.516 177.302 320.801 177.634C321.133 177.919 321.299 178.322 321.299 178.843V184.036C321.299 184.51 321.133 184.914 320.801 185.246C320.516 185.577 320.113 185.743 319.591 185.743H313.972C311.743 185.743 309.988 186.384 308.708 187.664C307.427 188.945 306.787 190.699 306.787 192.928V212.419C306.787 212.893 306.621 213.297 306.289 213.629C305.957 213.96 305.554 214.126 305.08 214.126H298.749ZM338.083 214.838C334.479 214.838 331.467 214.292 329.049 213.202C326.63 212.111 324.828 210.854 323.642 209.432C322.504 207.961 321.935 206.705 321.935 205.661C321.935 205.187 322.077 204.808 322.362 204.523C322.694 204.239 323.073 204.096 323.5 204.096H329.333C329.713 204.096 330.044 204.286 330.329 204.665C330.566 204.855 331.088 205.306 331.894 206.017C332.748 206.728 333.696 207.297 334.739 207.724C335.83 208.104 337.016 208.293 338.296 208.293C340.193 208.293 341.734 207.938 342.92 207.226C344.106 206.468 344.698 205.401 344.698 204.025C344.698 203.077 344.414 202.318 343.845 201.749C343.323 201.132 342.351 200.587 340.928 200.113C339.553 199.591 337.466 199.022 334.668 198.406C330.637 197.552 327.65 196.248 325.705 194.493C323.808 192.738 322.86 190.415 322.86 187.522C322.86 185.625 323.429 183.847 324.567 182.187C325.705 180.479 327.389 179.104 329.618 178.061C331.894 176.97 334.597 176.425 337.727 176.425C340.952 176.425 343.726 176.946 346.05 177.99C348.374 178.986 350.128 180.195 351.314 181.618C352.547 183.04 353.163 184.297 353.163 185.388C353.163 185.815 352.997 186.194 352.665 186.526C352.381 186.811 352.025 186.953 351.598 186.953H346.263C345.742 186.953 345.339 186.763 345.054 186.384C344.722 186.147 344.177 185.72 343.418 185.103C342.707 184.439 341.9 183.918 340.999 183.538C340.098 183.159 339.008 182.969 337.727 182.969C335.972 182.969 334.621 183.349 333.672 184.107C332.724 184.866 332.25 185.862 332.25 187.095C332.25 187.949 332.463 188.66 332.89 189.229C333.364 189.798 334.289 190.344 335.664 190.865C337.039 191.339 339.102 191.837 341.853 192.359C350.389 194.019 354.657 197.742 354.657 203.527C354.657 206.894 353.187 209.621 350.247 211.708C347.354 213.795 343.299 214.838 338.083 214.838Z" fill="#742A2A"/>
<path d="M165.397 96.4858L174.008 110.741C168.803 110.171 163.878 108.671 159.402 106.411L165.397 96.4858Z" fill="#E53E3E"/>
<path d="M198.28 106.301C198.208 106.338 198.137 106.374 198.065 106.411L192.07 96.4858L183.459 110.741C188.747 110.162 193.747 108.623 198.28 106.301Z" fill="#E53E3E"/>
<path d="M211.864 95.374C211.73 95.5371 211.594 95.6991 211.457 95.8602L214.911 90.142L205.407 74.4072L195.902 90.142L203.677 103.014C206.728 100.832 209.481 98.2617 211.864 95.374Z" fill="#E53E3E"/>
<path d="M188.238 90.142L178.733 74.4072L169.229 90.142L178.733 105.877L188.238 90.142Z" fill="#E53E3E"/>
<path d="M153.79 103.014L161.565 90.142L152.06 74.4072L142.556 90.142L146.01 95.86C148.298 98.5507 150.911 100.956 153.79 103.014Z" fill="#E53E3E"/>
<path d="M159.402 29.7163L165.397 39.6411L174.008 25.3855C168.803 25.9553 163.878 27.4556 159.402 29.7163Z" fill="#E53E3E"/>
<path d="M183.459 25.3855L192.07 39.6411L198.065 29.7163C193.589 27.4555 188.664 25.9553 183.459 25.3855Z" fill="#E53E3E"/>
<path d="M203.677 33.113L195.902 45.9848L205.407 61.7196L214.911 45.9848L211.457 40.2662C209.169 37.5757 206.556 35.171 203.677 33.113Z" fill="#E53E3E"/>
<path d="M169.229 45.9848L178.733 30.25L188.238 45.9848L178.733 61.7196L169.229 45.9848Z" fill="#E53E3E"/>
<path d="M146.01 40.2664L142.556 45.9847L152.06 61.7196L161.565 45.9847L153.79 33.113C150.911 35.1711 148.298 37.5759 146.01 40.2664Z" fill="#E53E3E"/>
<path d="M138.754 83.7489L148.228 68.0636L138.754 52.3782C136.846 57.237 135.798 62.5279 135.798 68.0635C135.798 73.5992 136.846 78.8901 138.754 83.7489Z" fill="#E53E3E"/>
<path d="M218.713 83.749C220.621 78.8902 221.669 73.5992 221.669 68.0635C221.669 62.5059 220.613 57.195 218.69 52.3203C218.698 52.3396 218.706 52.3589 218.713 52.3781L209.238 68.0636L218.713 83.749Z" fill="#E53E3E"/>
<path d="M182.565 68.0637L192.07 52.3289L201.574 68.0637L192.07 83.7985L182.565 68.0637Z" fill="#E53E3E"/>
<path d="M174.901 68.0637L165.397 52.3289L155.892 68.0637L165.397 83.7985L174.901 68.0637Z" fill="#E53E3E"/>
<path fill-rule="evenodd" clip-rule="evenodd" d="M225.354 117.662C234.925 108.664 241.89 96.9272 245 83.7037L236.383 78.8944C237.914 71.546 237.914 64.5039 236.383 57.1555L244.984 52.3551C241.861 39.1355 234.883 27.4056 225.303 18.4168L216.788 23.1694C211.276 18.5768 205.153 14.9026 198.417 12.4531V2.88692C192.188 1.00917 185.583 0 178.742 0C171.959 0 165.408 0.992263 159.226 2.83941V12.4531C152.184 14.9026 146.06 18.5768 140.549 23.4757L132.054 18.537C122.522 27.5264 115.584 39.2376 112.483 52.4282L120.953 57.1555C119.728 64.5039 119.728 71.546 120.953 78.8944L112.467 83.6306C115.562 96.8587 122.516 108.602 132.075 117.61L140.549 112.88C146.06 117.473 152.184 121.147 159.226 123.597V133.287C165.408 135.134 171.959 136.127 178.742 136.127C185.583 136.127 192.188 135.117 198.417 133.24V123.597C205.153 121.147 211.276 117.473 216.788 112.88L225.354 117.662ZM178.734 118.27C206.462 118.27 228.94 95.7915 228.94 68.0633C228.94 40.3351 206.462 17.857 178.734 17.857C151.005 17.857 128.527 40.3351 128.527 68.0633C128.527 95.7915 151.005 118.27 178.734 118.27Z" fill="#E53E3E"/>
</svg>